<svg width="28" height="28" xmlns="http://www.w3.org/2000/svg" xmlns:xlink="http://www.w3.org/1999/xlink" xml:space="preserve" overflow="hidden"><defs><clipPath id="clip0"><rect x="15" y="1052" width="28" height="28"/></clipPath></defs><g clip-path="url(#clip0)" transform="translate(-15 -1052)"><path d="M17.9167 1058.12 17.9167 1073.88 40.0833 1073.88 40.0833 1058.12ZM29.6189 1068.18C29.2765 1068.52 28.7235 1068.52 28.3811 1068.18L18.9174 1058.71C18.9162 1058.71 18.9163 1058.71 18.9174 1058.71 18.918 1058.71 18.9187 1058.71 18.9194 1058.71L39.0806 1058.71C39.0822 1058.71 39.0835 1058.71 39.0835 1058.71 39.0834 1058.71 39.0831 1058.71 39.0826 1058.71ZM25.3792 1066 18.505 1072.87C18.5038 1072.88 18.502 1072.88 18.5008 1072.87 18.5003 1072.87 18.5 1072.87 18.5 1072.87L18.5 1059.13C18.5 1059.13 18.5013 1059.12 18.5029 1059.12 18.5037 1059.12 18.5044 1059.13 18.505 1059.13ZM25.7917 1066.41 27.9687 1068.59C28.5381 1069.16 29.4615 1069.16 30.0311 1068.59 30.0312 1068.59 30.0312 1068.59 30.0313 1068.59L32.2083 1066.41 39.0826 1073.29C39.0838 1073.29 39.0837 1073.29 39.0826 1073.29 39.082 1073.29 39.0813 1073.29 39.0806 1073.29L18.9194 1073.29C18.9178 1073.29 18.9165 1073.29 18.9165 1073.29 18.9166 1073.29 18.9168 1073.29 18.9174 1073.29ZM32.6208 1066 39.495 1059.13C39.4962 1059.12 39.498 1059.12 39.4992 1059.13 39.4997 1059.13 39.5 1059.13 39.5 1059.13L39.5 1072.87C39.5 1072.87 39.4987 1072.88 39.4971 1072.88 39.4963 1072.88 39.4956 1072.87 39.495 1072.87Z" fill="#BF9000"/></g></svg>