<svg width="32" height="32" xmlns="http://www.w3.org/2000/svg" xmlns:xlink="http://www.w3.org/1999/xlink" xml:space="preserve" overflow="hidden"><defs><clipPath id="clip0"><rect x="13" y="937" width="32" height="32"/></clipPath></defs><g clip-path="url(#clip0)" transform="translate(-13 -937)"><path d="M40.7633 940.812C39.7057 939.244 37.5769 938.83 36.0085 939.887 35.6437 940.133 35.3297 940.447 35.0837 940.812 34.4446 941.755 34.3096 942.952 34.7225 944.013L36.282 947.46 37.628 950.284C37.7117 950.447 37.9117 950.511 38.0749 950.428 38.1368 950.396 38.1872 950.346 38.219 950.284L39.565 947.46 41.1244 944.013C41.5374 942.952 41.4024 941.755 40.7633 940.812ZM40.5087 943.757 38.9633 947.173 37.9267 949.348C37.925 949.351 37.9223 949.351 37.9206 949.348L36.8893 947.185 35.3382 943.757C35.0112 942.902 35.1227 941.941 35.6369 941.184 36.4891 939.921 38.2037 939.588 39.4665 940.44 39.7612 940.639 40.0147 940.893 40.2131 941.189 40.7251 941.945 40.8354 942.904 40.5087 943.757Z" fill="#FFC000"/><path d="M17.4052 953.335C16.6134 954.503 16.4462 955.986 16.9578 957.301L18.8898 961.572 20.5574 965.069C20.661 965.272 20.9088 965.352 21.111 965.248 21.1877 965.209 21.2502 965.146 21.2895 965.069L22.9571 961.572 24.8891 957.301C25.4007 955.986 25.2334 954.503 24.4417 953.335 23.1315 951.392 20.4942 950.879 18.5512 952.189 18.0991 952.494 17.71 952.883 17.4052 953.335ZM23.8915 953.712C24.5562 954.693 24.6988 955.938 24.2734 957.044L22.3553 961.285 20.9265 964.282C20.9248 964.285 20.9221 964.285 20.9204 964.282L19.4971 961.297 17.5733 957.044C17.1477 955.936 17.2915 954.69 17.9583 953.707 19.0631 952.07 21.2861 951.638 22.9236 952.742 23.3057 953 23.6343 953.329 23.8914 953.712Z" fill="#FFC000"/><path d="M27.6209 964.629C27.9509 964.626 28.2868 964.62 28.626 964.612L28.61 963.945C28.2737 963.953 27.9406 963.959 27.6131 963.963Z" fill="#FFC000"/><path d="M30.2736 951.771 29.9748 951.175C29.6558 951.332 29.3528 951.519 29.07 951.735L29.4785 952.262C29.7272 952.073 29.9934 951.909 30.2736 951.771Z" fill="#FFC000"/><path d="M28.875 952.9 28.3122 952.543C28.1009 952.87 27.9773 953.246 27.9531 953.635L28.6185 953.675C28.6353 953.399 28.7237 953.132 28.875 952.9Z" fill="#FFC000"/><path d="M26.6153 963.97 26.2773 963.97 25.617 963.969 25.6143 964.635 26.2773 964.637 26.6167 964.636 26.6153 963.97Z" fill="#FFC000"/><path d="M32.8833 956.47C32.5567 956.388 32.2333 956.306 31.919 956.221L31.7448 956.864C32.0632 956.95 32.3903 957.033 32.7209 957.116Z" fill="#FFC000"/><path d="M23.6156 963.96 23.6156 964.627C23.9211 964.627 24.2556 964.628 24.6136 964.63L24.6175 963.964C24.258 963.962 23.9224 963.96 23.6156 963.96Z" fill="#FFC000"/><path d="M28.876 955.642 29.2936 955.122C29.0698 954.951 28.8886 954.731 28.7642 954.478L28.1608 954.762C28.329 955.106 28.5736 955.407 28.876 955.642Z" fill="#FFC000"/><path d="M32.9084 950.225 33.0441 950.877C33.3547 950.813 33.6812 950.754 34.0143 950.701L33.9105 950.042C33.5667 950.097 33.2295 950.158 32.9084 950.225Z" fill="#FFC000"/><path d="M34.9189 949.906 34.9941 950.568C35.5716 950.503 35.9508 950.482 35.9666 950.481L35.9307 949.815C35.8888 949.817 35.5057 949.839 34.9189 949.906Z" fill="#FFC000"/><path d="M38.8979 961.031C38.8992 960.739 38.8671 960.449 38.8021 960.165L38.153 960.317C38.2062 960.551 38.2325 960.79 38.2313 961.03 38.2313 961.084 38.2283 961.137 38.2225 961.191L38.8849 961.265C38.8935 961.187 38.8979 961.109 38.8979 961.031Z" fill="#FFC000"/><path d="M35.4814 963.196 35.6556 963.839C35.9894 963.75 36.3182 963.644 36.6408 963.52L36.3993 962.899C36.0988 963.014 35.7924 963.113 35.4814 963.196Z" fill="#FFC000"/><path d="M37.2437 962.49 37.5933 963.057C37.9132 962.868 38.1978 962.624 38.4345 962.337L37.9127 961.922C37.724 962.148 37.4977 962.34 37.2437 962.49Z" fill="#FFC000"/><path d="M35.8057 957.321 35.5664 957.943C35.8655 958.056 36.1573 958.188 36.44 958.337L36.7548 957.75C36.4476 957.587 36.1307 957.444 35.8057 957.321Z" fill="#FFC000"/><path d="M37.6421 958.338 37.2154 958.85C37.4466 959.04 37.6479 959.263 37.8124 959.512L38.3724 959.151C38.1714 958.844 37.9252 958.571 37.6421 958.338Z" fill="#FFC000"/><path d="M33.5588 963.582 33.6554 964.241C34.0062 964.19 34.3436 964.132 34.6582 964.07L34.5293 963.416C34.2253 963.476 33.8988 963.532 33.5588 963.582Z" fill="#FFC000"/><path d="M29.7979 956.198C30.1132 956.343 30.4367 956.468 30.7668 956.575L30.9757 955.942C30.6703 955.844 30.371 955.727 30.0791 955.594Z" fill="#FFC000"/><path d="M30.6379 964.532 30.5994 963.867C30.2687 963.886 29.9368 963.901 29.6058 963.914L29.6318 964.58C29.9667 964.568 30.3029 964.552 30.6379 964.532Z" fill="#FFC000"/><path d="M30.9326 950.768 31.1585 951.396C31.4452 951.292 31.7583 951.194 32.089 951.105L31.9142 950.461C31.5664 950.556 31.2362 950.659 30.9326 950.768Z" fill="#FFC000"/><path d="M31.6442 964.464C31.9837 964.436 32.3198 964.405 32.6502 964.369L32.578 963.706C32.2537 963.742 31.9238 963.772 31.5908 963.799Z" fill="#FFC000"/><path d="M33.8576 956.717 33.6886 957.362C34.0098 957.446 34.3289 957.534 34.6413 957.629L34.8346 956.991C34.5145 956.894 34.1868 956.804 33.8576 956.717Z" fill="#FFC000"/><path d="M37.9233 941.272C37.1074 941.272 36.446 941.933 36.446 942.749 36.4461 943.565 37.1075 944.226 37.9234 944.226 38.7393 944.226 39.4007 943.565 39.4007 942.749 39.4041 941.937 38.7482 941.275 37.9357 941.272 37.9316 941.272 37.9275 941.272 37.9233 941.272ZM37.9233 943.56C37.4756 943.56 37.1127 943.197 37.1127 942.749 37.1127 942.301 37.4757 941.938 37.9234 941.938 38.3711 941.938 38.734 942.301 38.734 942.749 38.7388 943.192 38.3836 943.555 37.9407 943.56 37.9349 943.56 37.9291 943.56 37.9233 943.56Z" fill="#FFC000"/><path d="M19.0931 955.735C19.0931 956.746 19.9125 957.565 20.9234 957.565 21.9343 957.565 22.7538 956.746 22.7538 955.735 22.7538 954.724 21.9344 953.905 20.9235 953.905 20.9235 953.905 20.9234 953.905 20.9233 953.905 19.9167 953.901 19.0973 954.713 19.0931 955.72 19.0931 955.725 19.0931 955.73 19.0931 955.735ZM22.0871 955.735C22.0871 956.378 21.5662 956.899 20.9235 956.899 20.2808 956.899 19.7598 956.378 19.7598 955.735 19.7597 955.092 20.2807 954.571 20.9234 954.571 20.9234 954.571 20.9234 954.571 20.9234 954.571 21.5592 954.564 22.0802 955.074 22.0871 955.71 22.0872 955.718 22.0872 955.727 22.0871 955.735Z" fill="#FFC000"/></g></svg>