<svg width="29" height="29" xmlns="http://www.w3.org/2000/svg" xmlns:xlink="http://www.w3.org/1999/xlink" xml:space="preserve" overflow="hidden"><defs><clipPath id="clip0"><rect x="14" y="978" width="29" height="29"/></clipPath></defs><g clip-path="url(#clip0)" transform="translate(-14 -978)"><path d="M33.9375 1002.17 23.0625 1002.17 23.0625 982.833 33.9375 982.833 33.9375 1002.17ZM27.2917 980.417 29.7083 980.417C30.0406 980.417 30.3125 980.689 30.3125 981.021 30.3125 981.353 30.0406 981.625 29.7083 981.625L27.2917 981.625C26.9594 981.625 26.6875 981.353 26.6875 981.021 26.6875 980.689 26.9594 980.417 27.2917 980.417ZM35.1458 979.208 21.8542 979.208C21.5219 979.208 21.25 979.48 21.25 979.812L21.25 1005.19C21.25 1005.52 21.5219 1005.79 21.8542 1005.79L35.1458 1005.79C35.4781 1005.79 35.75 1005.52 35.75 1005.19L35.75 979.812C35.75 979.48 35.4781 979.208 35.1458 979.208Z" fill="#BF9000"/></g></svg>