<svg width="28" height="28" xmlns="http://www.w3.org/2000/svg" xmlns:xlink="http://www.w3.org/1999/xlink" xml:space="preserve" overflow="hidden"><defs><clipPath id="clip0"><rect x="15" y="1016" width="28" height="28"/></clipPath></defs><g clip-path="url(#clip0)" transform="translate(-15 -1016)"><path d="M28.9708 1020.93C29.4492 1020.93 29.8472 1020.56 29.875 1020.08 29.875 1019.59 29.4958 1018.33 29 1018.33 28.5042 1018.33 29.1167 1018.92 28.4167 1019.5L28.3583 1019.56C28.212 1019.69 28.1277 1019.88 28.125 1020.08 28.1565 1020.54 28.5176 1020.9 28.9708 1020.93ZM28.771 1019.97 28.8122 1019.93C28.9555 1019.81 29.0775 1019.67 29.173 1019.5 29.1734 1019.5 29.1749 1019.5 29.1763 1019.5 29.1771 1019.5 29.1777 1019.5 29.1779 1019.5 29.2395 1019.69 29.2777 1019.87 29.2917 1020.06 29.2764 1020.22 29.1468 1020.34 28.9898 1020.34 28.8446 1020.32 28.7298 1020.21 28.7083 1020.07 28.7185 1020.03 28.7403 1019.99 28.7708 1019.97Z" fill="#BF9000"/><path d="M31.8875 1022.39C32.3658 1022.39 32.7637 1022.02 32.7917 1021.54 32.7917 1021.05 32.4125 1019.79 31.9167 1019.79 31.4208 1019.79 32.0333 1020.38 31.3333 1020.96L31.275 1021.02C31.1286 1021.15 31.0443 1021.34 31.0417 1021.54 31.073 1021.99 31.4342 1022.36 31.8875 1022.39ZM31.6877 1021.43 31.7288 1021.39C31.872 1021.27 31.994 1021.12 32.0896 1020.96 32.0901 1020.96 32.0916 1020.96 32.093 1020.96 32.0937 1020.96 32.0943 1020.96 32.0946 1020.96 32.1562 1021.14 32.1944 1021.33 32.2083 1021.52 32.1928 1021.68 32.0634 1021.8 31.9065 1021.8 31.762 1021.78 31.6483 1021.67 31.627 1021.52 31.6368 1021.49 31.6581 1021.45 31.688 1021.43Z" fill="#BF9000"/><path d="M26.0542 1022.39C26.5325 1022.39 26.9305 1022.02 26.9583 1021.54 26.9583 1021.05 26.5792 1019.79 26.0833 1019.79 25.5875 1019.79 26.2 1020.38 25.5 1020.96L25.4417 1021.02C25.2953 1021.15 25.211 1021.34 25.2083 1021.54 25.2398 1021.99 25.6009 1022.36 26.0542 1022.39ZM25.8544 1021.43 25.8955 1021.39C26.0388 1021.27 26.1608 1021.12 26.2563 1020.96 26.2568 1020.96 26.2583 1020.96 26.2596 1020.96 26.2604 1020.96 26.261 1020.96 26.2612 1020.96 26.3228 1021.14 26.361 1021.33 26.375 1021.52 26.3597 1021.68 26.2301 1021.8 26.0731 1021.8 25.9279 1021.78 25.8131 1021.67 25.7917 1021.52 25.8018 1021.49 25.8237 1021.45 25.8541 1021.43Z" fill="#BF9000"/><path d="M37.6333 1039.04 37.4583 1039.04 37.4583 1029.03C37.4583 1027.97 35.4321 1027.26 32.7952 1026.93L32.7952 1023.06 32.6922 1022.97C32.2347 1022.63 31.6039 1022.63 31.1464 1022.97L31.0437 1023.06 31.0437 1026.76C30.659 1026.74 30.269 1026.72 29.877 1026.71L29.877 1021.6 29.7741 1021.52C29.3166 1021.17 28.6857 1021.17 28.2282 1021.52L28.1256 1021.6 28.1256 1026.71C27.7333 1026.72 27.3433 1026.74 26.9589 1026.76L26.9589 1023.06 26.856 1022.97C26.3985 1022.63 25.7676 1022.63 25.3101 1022.97L25.2075 1023.06 25.2075 1026.93C22.5711 1027.26 20.5417 1027.97 20.5417 1029.03L20.5417 1039.04 20.3667 1039.04C19.819 1039.04 19.375 1039.49 19.375 1040.03L19.375 1040.09C19.375 1040.64 19.819 1041.08 20.3667 1041.08L37.6333 1041.08C38.181 1041.08 38.625 1040.64 38.625 1040.09L38.625 1040.03C38.625 1039.49 38.181 1039.04 37.6333 1039.04ZM31.6285 1023.35C31.8146 1023.27 32.0257 1023.27 32.2118 1023.35L32.2118 1026.86C32.0195 1026.84 31.8251 1026.82 31.6285 1026.8ZM28.7118 1026.7 28.7118 1021.9C28.898 1021.82 29.1091 1021.82 29.2952 1021.9L29.2952 1026.7ZM25.7952 1023.35C25.9813 1023.27 26.1924 1023.27 26.3785 1023.35L26.3785 1026.8C26.1819 1026.82 25.9875 1026.84 25.7952 1026.86ZM25.2118 1027.51 25.2118 1027.51 26.76 1027.36C27.4536 1027.31 28.2011 1027.28 29.0006 1027.28 29.819 1027.28 30.5829 1027.31 31.2899 1027.36L32.4478 1027.47C35.2501 1027.8 36.875 1028.49 36.875 1029.03L36.875 1033.76C36.8272 1033.77 36.782 1033.77 36.7292 1033.77 36.3906 1033.78 36.0601 1033.67 35.7958 1033.46 35.0493 1032.9 34.0305 1032.9 33.284 1033.46 32.7338 1033.88 31.9699 1033.88 31.4197 1033.46 30.6734 1032.9 29.6547 1032.9 28.9084 1033.46 28.3584 1033.88 27.5947 1033.88 27.0447 1033.46 26.2987 1032.9 25.2802 1032.9 24.5343 1033.46 23.9844 1033.88 23.2207 1033.88 22.6708 1033.46 22.3114 1033.18 21.8694 1033.04 21.4167 1033.04 21.3197 1033.04 21.2229 1033.05 21.1268 1033.06L21.1268 1029.03C21.125 1028.52 22.6186 1027.86 25.2113 1027.51ZM21.125 1033.65C21.2207 1033.63 21.3177 1033.62 21.4149 1033.62 21.7529 1033.62 22.0827 1033.73 22.3465 1033.94 23.0924 1034.49 24.1109 1034.49 24.8569 1033.94 25.4068 1033.52 26.1704 1033.52 26.7203 1033.94 27.4664 1034.49 28.4849 1034.49 29.231 1033.94 29.7812 1033.52 30.5451 1033.52 31.0953 1033.94 31.8416 1034.49 32.8603 1034.49 33.6066 1033.94 34.1569 1033.52 34.9209 1033.52 35.4712 1033.94 35.8318 1034.22 36.2752 1034.36 36.7292 1034.35 36.7814 1034.35 36.8283 1034.35 36.875 1034.35L36.875 1039.04 21.125 1039.04ZM38.0417 1040.09C38.0417 1040.32 37.8588 1040.5 37.6333 1040.5L20.3667 1040.5C20.1411 1040.5 19.9583 1040.32 19.9583 1040.09L19.9583 1040.03C19.9583 1039.81 20.1411 1039.62 20.3667 1039.62L37.6333 1039.62C37.8588 1039.62 38.0417 1039.81 38.0417 1040.03Z" fill="#BF9000"/></g></svg>