<svg width="28" height="29" xmlns="http://www.w3.org/2000/svg" xmlns:xlink="http://www.w3.org/1999/xlink" xml:space="preserve" overflow="hidden"><defs><clipPath id="clip0"><rect x="15" y="1052" width="28" height="29"/></clipPath></defs><g clip-path="url(#clip0)" transform="translate(-15 -1052)"><path d="M2.91667 6.125 2.91667 21.875 25.0833 21.875 25.0833 6.125ZM14.6189 16.177C14.2765 16.5174 13.7235 16.5174 13.3811 16.177L3.91737 6.71329C3.91624 6.71215 3.91627 6.71029 3.9174 6.70918 3.91796 6.70865 3.91866 6.70833 3.91942 6.70833L24.0806 6.70833C24.0822 6.70836 24.0835 6.70967 24.0835 6.71128 24.0834 6.71204 24.0831 6.71277 24.0826 6.71329ZM10.3792 14 3.50496 20.8743C3.50382 20.8754 3.50195 20.8754 3.50085 20.8743 3.50032 20.8737 3.5 20.873 3.5 20.8722L3.5 7.12775C3.50003 7.12615 3.50134 7.12486 3.50295 7.12486 3.5037 7.12489 3.50443 7.12518 3.50496 7.12571ZM10.7917 14.4124 12.9687 16.5894C13.5381 17.159 14.4615 17.1591 15.0311 16.5897 15.0312 16.5896 15.0312 16.5895 15.0313 16.5894L17.2083 14.4124 24.0826 21.2867C24.0838 21.2878 24.0837 21.2897 24.0826 21.2908 24.082 21.2913 24.0813 21.2917 24.0806 21.2917L3.91942 21.2917C3.91781 21.2916 3.91653 21.2903 3.91653 21.2887 3.91656 21.288 3.91685 21.2872 3.91737 21.2867ZM17.6208 14 24.495 7.12571C24.4962 7.12457 24.498 7.1246 24.4992 7.12574 24.4997 7.12629 24.5 7.12699 24.5 7.12775L24.5 20.8722C24.5 20.8739 24.4987 20.8751 24.4971 20.8751 24.4963 20.8751 24.4956 20.8748 24.495 20.8743Z" fill="#BF9000" transform="matrix(1 0 0 1.03571 15 1052)"/></g></svg>