<svg width="23" height="23" xmlns="http://www.w3.org/2000/svg" xmlns:xlink="http://www.w3.org/1999/xlink" xml:space="preserve" overflow="hidden"><defs><clipPath id="clip0"><rect x="111" y="217" width="23" height="23"/></clipPath></defs><g clip-path="url(#clip0)" transform="translate(-111 -217)"><path d="M116.702 224.81C114.091 227.422 114.091 231.686 116.702 234.298 119.314 236.909 123.578 236.909 126.19 234.298 128.633 231.854 128.801 227.973 126.669 225.337L128.897 223.109 130.262 224.475 130.262 220.738 126.525 220.738 127.891 222.103 125.662 224.331C123.027 222.199 119.146 222.367 116.702 224.81ZM125.183 233.268C123.123 235.328 119.793 235.328 117.732 233.268 115.672 231.207 115.672 227.877 117.732 225.817 119.793 223.756 123.123 223.756 125.183 225.817 127.244 227.877 127.22 231.231 125.183 233.268Z" fill="#BF9000"/></g></svg>