<svg width="29" height="29" xmlns="http://www.w3.org/2000/svg" xmlns:xlink="http://www.w3.org/1999/xlink" xml:space="preserve" overflow="hidden"><defs><clipPath id="clip0"><rect x="13" y="977" width="29" height="29"/></clipPath></defs><g clip-path="url(#clip0)" transform="translate(-13 -977)"><path d="M32.9375 1001.17 22.0625 1001.17 22.0625 981.833 32.9375 981.833 32.9375 1001.17ZM26.2917 979.417 28.7083 979.417C29.0406 979.417 29.3125 979.689 29.3125 980.021 29.3125 980.353 29.0406 980.625 28.7083 980.625L26.2917 980.625C25.9594 980.625 25.6875 980.353 25.6875 980.021 25.6875 979.689 25.9594 979.417 26.2917 979.417ZM34.1458 978.208 20.8542 978.208C20.5219 978.208 20.25 978.48 20.25 978.812L20.25 1004.19C20.25 1004.52 20.5219 1004.79 20.8542 1004.79L34.1458 1004.79C34.4781 1004.79 34.75 1004.52 34.75 1004.19L34.75 978.812C34.75 978.48 34.4781 978.208 34.1458 978.208Z" fill="#BF9000"/></g></svg>